<svg xmlns="http://www.w3.org/2000/svg" xmlns:xlink="http://www.w3.org/1999/xlink" version="1.1" style="" xml:space="preserve" fill="#b7cee5" width="511" height="400"><rect id="backgroundrect" width="100%" height="100%" x="0" y="0" fill="none" stroke="none" class="" style=""/>
















<g class="currentLayer" style=""><title>Layer 1</title><g id="svg_11" class="">
</g><g id="svg_1" class="">
	<path d="M471.5,0.5086707472801208 h-432 C17.72,0.5086707472801208 1.1102230246251565e-16,18.22867074728012 1.1102230246251565e-16,40.00867074728012 v320 C1.1102230246251565e-16,381.7886707472801 17.72,399.5086707472801 39.5,399.5086707472801 h432 c21.78,0 39.5,-17.72 39.5,-39.5 v-320 C511,18.22867074728012 493.28,0.5086707472801208 471.5,0.5086707472801208 zM39.5,15.50867074728012 h432 c13.509,0 24.5,10.991 24.5,24.5 V64.50867074728012 H15 V40.00867074728012 C15,26.49967074728012 25.991,15.50867074728012 39.5,15.50867074728012 zM471.5,384.5086707472801 h-432 C25.991,384.5086707472801 15,373.51767074728014 15,360.0086707472801 V79.50867074728012 h481 v280.5 C496,373.51767074728014 485.009,384.5086707472801 471.5,384.5086707472801 z" id="svg_2"/>
	<path d="M39.5,47.50867074728012 c1.97,0 3.91,-0.8 5.3,-2.2 c1.4,-1.3900000000000001 2.2,-3.33 2.2,-5.3 s-0.8,-3.91 -2.2,-5.3 c-1.3900000000000001,-1.4 -3.33,-2.2 -5.3,-2.2 c-1.97,0 -3.91,0.8 -5.3,2.2 c-1.4,1.3900000000000001 -2.2,3.33 -2.2,5.3 s0.8,3.91 2.2,5.3 C35.59,46.708670747280124 37.53,47.50867074728012 39.5,47.50867074728012 z" id="svg_3"/>
	<path d="M63.5,47.50867074728012 c1.97,0 3.91,-0.8 5.3,-2.2 c1.4,-1.3900000000000001 2.2,-3.33 2.2,-5.3 s-0.8,-3.91 -2.2,-5.3 c-1.3900000000000001,-1.4 -3.33,-2.2 -5.3,-2.2 c-1.97,0 -3.91,0.8 -5.3,2.2 c-1.4,1.3900000000000001 -2.2,3.33 -2.2,5.3 s0.8,3.91 2.2,5.3 C59.59,46.708670747280124 61.53,47.50867074728012 63.5,47.50867074728012 z" id="svg_4"/>
	<path d="M87.5,47.50867074728012 c1.97,0 3.91,-0.8 5.3,-2.2 c1.4,-1.3900000000000001 2.2,-3.33 2.2,-5.3 s-0.8,-3.91 -2.2,-5.3 c-1.3900000000000001,-1.4 -3.33,-2.2 -5.3,-2.2 c-1.97,0 -3.91,0.8 -5.3,2.2 c-1.4,1.3900000000000001 -2.2,3.33 -2.2,5.3 s0.8,3.91 2.2,5.3 C83.59,46.708670747280124 85.53,47.50867074728012 87.5,47.50867074728012 z" id="svg_5"/>
	<path d="M289.774,136.86167074728013 c-3.9450000000000003,-1.255 -8.165,0.926 -9.421,4.873 l-56,176 c-1.256,3.947 0.926,8.165 4.873,9.421 c0.7560000000000007,0.24100000000000016 1.522,0.3550000000000003 2.276,0.3550000000000003 c3.179,0 6.13,-2.037 7.145,-5.228 l56,-176 C295.903,142.33567074728012 293.721,138.11767074728013 289.774,136.86167074728013 z" id="svg_6"/>
	<path d="M324.803,154.70567074728012 c-2.9290000000000003,-2.9290000000000003 -7.678,-2.9290000000000003 -10.606,0 c-2.9290000000000003,2.9290000000000003 -2.9290000000000003,7.6770000000000005 0,10.606 l66.697,66.697 l-66.697,66.697 c-2.9290000000000003,2.9290000000000003 -2.9290000000000003,7.6770000000000005 0,10.606 c1.464,1.464 3.384,2.197 5.303,2.197 s3.839,-0.7320000000000007 5.303,-2.197 l72,-72 c2.9290000000000003,-2.9290000000000003 2.9290000000000003,-7.6770000000000005 0,-10.606 L324.803,154.70567074728012 z" id="svg_7"/>
	<path d="M204.803,154.70567074728012 c-2.9290000000000003,-2.9290000000000003 -7.678,-2.9290000000000003 -10.606,0 l-72,72 c-2.9290000000000003,2.9290000000000003 -2.9290000000000003,7.6770000000000005 0,10.606 l72,72 c1.464,1.464 3.384,2.197 5.303,2.197 s3.839,-0.7320000000000007 5.303,-2.197 c2.9290000000000003,-2.9290000000000003 2.9290000000000003,-7.6770000000000005 0,-10.606 L138.106,232.00867074728012 l66.697,-66.697 C207.732,162.38267074728012 207.732,157.63467074728013 204.803,154.70567074728012 z" id="svg_8"/>
	<path d="M119.5,47.50867074728012 h304 c4.142,0 7.5,-3.358 7.5,-7.5 s-3.358,-7.5 -7.5,-7.5 h-304 c-4.142,0 -7.5,3.358 -7.5,7.5 S115.358,47.50867074728012 119.5,47.50867074728012 z" id="svg_9"/>
	<path d="M455.5,47.50867074728012 h16 c4.142,0 7.5,-3.358 7.5,-7.5 s-3.358,-7.5 -7.5,-7.5 h-16 c-4.142,0 -7.5,3.358 -7.5,7.5 S451.358,47.50867074728012 455.5,47.50867074728012 z" id="svg_10"/>
</g><g id="svg_12" class="">
</g><g id="svg_13" class="">
</g><g id="svg_14" class="">
</g><g id="svg_15" class="">
</g><g id="svg_16" class="">
</g><g id="svg_17" class="">
</g><g id="svg_18" class="">
</g><g id="svg_19" class="">
</g><g id="svg_20" class="">
</g><g id="svg_21" class="">
</g><g id="svg_22" class="">
</g><g id="svg_23" class="">
</g><g id="svg_24" class="">
</g><g id="svg_25" class="">
</g></g></svg>
